<svg width="273" height="298" viewBox="0 0 273 298" fill="none" xmlns="http://www.w3.org/2000/svg">
<path d="M228.539 111.771H62.5386C61.213 111.77 59.9421 111.242 59.0048 110.305C58.0674 109.368 57.5401 108.097 57.5386 106.771V50.7712C57.5401 49.4456 58.0674 48.1748 59.0048 47.2374C59.9421 46.3001 61.213 45.7728 62.5386 45.7712H228.539C229.864 45.7728 231.135 46.3 232.072 47.2374C233.01 48.1747 233.537 49.4456 233.539 50.7712V106.771C233.537 108.097 233.01 109.368 232.072 110.305C231.135 111.242 229.864 111.77 228.539 111.771Z" fill="#3F3D56"/>
<path d="M127.539 60.7712H83.5386V65.7712H127.539V60.7712Z" fill="white"/>
<path d="M185.539 66.7712C187.195 66.7712 188.539 65.4281 188.539 63.7712C188.539 62.1144 187.195 60.7712 185.539 60.7712C183.882 60.7712 182.539 62.1144 182.539 63.7712C182.539 65.4281 183.882 66.7712 185.539 66.7712Z" fill="#FFA263"/>
<path d="M195.539 66.7712C197.195 66.7712 198.539 65.4281 198.539 63.7712C198.539 62.1144 197.195 60.7712 195.539 60.7712C193.882 60.7712 192.539 62.1144 192.539 63.7712C192.539 65.4281 193.882 66.7712 195.539 66.7712Z" fill="#FFA263"/>
<path d="M205.539 66.7712C207.195 66.7712 208.539 65.4281 208.539 63.7712C208.539 62.1144 207.195 60.7712 205.539 60.7712C203.882 60.7712 202.539 62.1144 202.539 63.7712C202.539 65.4281 203.882 66.7712 205.539 66.7712Z" fill="#FFA263"/>
<path d="M228.539 182.771H62.5386C61.213 182.77 59.9421 182.242 59.0048 181.305C58.0674 180.368 57.5401 179.097 57.5386 177.771V121.771C57.5401 120.446 58.0674 119.175 59.0048 118.237C59.9421 117.3 61.213 116.773 62.5386 116.771H228.539C229.864 116.773 231.135 117.3 232.072 118.237C233.01 119.175 233.537 120.446 233.539 121.771V177.771C233.537 179.097 233.01 180.368 232.072 181.305C231.135 182.242 229.864 182.77 228.539 182.771Z" fill="#3F3D56"/>
<path d="M127.539 131.771H83.5386V136.771H127.539V131.771Z" fill="white"/>
<path d="M185.539 137.771C187.195 137.771 188.539 136.428 188.539 134.771C188.539 133.114 187.195 131.771 185.539 131.771C183.882 131.771 182.539 133.114 182.539 134.771C182.539 136.428 183.882 137.771 185.539 137.771Z" fill="#FFA263"/>
<path d="M195.539 137.771C197.195 137.771 198.539 136.428 198.539 134.771C198.539 133.114 197.195 131.771 195.539 131.771C193.882 131.771 192.539 133.114 192.539 134.771C192.539 136.428 193.882 137.771 195.539 137.771Z" fill="#FFA263"/>
<path d="M205.539 137.771C207.195 137.771 208.539 136.428 208.539 134.771C208.539 133.114 207.195 131.771 205.539 131.771C203.882 131.771 202.539 133.114 202.539 134.771C202.539 136.428 203.882 137.771 205.539 137.771Z" fill="#FFA263"/>
<path d="M228.539 253.771H62.5386C61.213 253.77 59.9421 253.242 59.0048 252.305C58.0674 251.368 57.5401 250.097 57.5386 248.771V192.771C57.5401 191.446 58.0674 190.175 59.0048 189.237C59.9421 188.3 61.213 187.773 62.5386 187.771H228.539C229.864 187.773 231.135 188.3 232.072 189.237C233.01 190.175 233.537 191.446 233.539 192.771V248.771C233.537 250.097 233.01 251.368 232.072 252.305C231.135 253.242 229.864 253.77 228.539 253.771Z" fill="#3F3D56"/>
<path d="M127.539 202.771H83.5386V207.771H127.539V202.771Z" fill="white"/>
<path d="M185.539 208.771C187.195 208.771 188.539 207.428 188.539 205.771C188.539 204.114 187.195 202.771 185.539 202.771C183.882 202.771 182.539 204.114 182.539 205.771C182.539 207.428 183.882 208.771 185.539 208.771Z" fill="#FFA263"/>
<path d="M195.539 208.771C197.195 208.771 198.539 207.428 198.539 205.771C198.539 204.114 197.195 202.771 195.539 202.771C193.882 202.771 192.539 204.114 192.539 205.771C192.539 207.428 193.882 208.771 195.539 208.771Z" fill="#FFA263"/>
<path d="M205.539 208.771C207.195 208.771 208.539 207.428 208.539 205.771C208.539 204.114 207.195 202.771 205.539 202.771C203.882 202.771 202.539 204.114 202.539 205.771C202.539 207.428 203.882 208.771 205.539 208.771Z" fill="#FFA263"/>
<path d="M168 297.234H0V231H2V295.234H168V297.234Z" fill="#CCCCCC"/>
<path d="M105 0H273V66.234H271V2H105V0Z" fill="#CCCCCC"/>
</svg>
